<svg id="图层_1" data-name="图层 1" xmlns="http://www.w3.org/2000/svg" viewBox="0 0 180 36"><defs><style>.cls-1{fill:#595757;}.cls-2{fill:#912363;}</style></defs><path class="cls-1" d="M26,12.61q0-3.54-5.76-3.54H11.64q-6.14,0-6.13,3.54V15.1A1.61,1.61,0,0,1,3.7,16.93,1.59,1.59,0,0,1,1.92,15.1V12.48q0-6.25,10.48-6.26H19q10.47,0,10.48,6.26V15.1a1.6,1.6,0,0,1-1.78,1.83A1.55,1.55,0,0,1,26,15.18V12.61ZM29.51,23.8Q29.51,30,19,30H12.4Q1.92,30,1.92,23.85V21A1.59,1.59,0,0,1,3.7,19.21,1.6,1.6,0,0,1,5.51,21v2.73c0,2.28,2,3.43,6.13,3.43H20c4,0,6-1.15,6-3.43V21a1.58,1.58,0,0,1,1.76-1.81A1.59,1.59,0,0,1,29.51,21V23.8Z"/><path class="cls-1" d="M62,28.72c0,1-.55,1.5-1.66,1.5s-1.67-.5-1.67-1.5v-12q0-2.17-4.51-2.17H45.93q-4.59,0-4.59,2.2V28.72q0,1.5-1.62,1.5T38,28.72V16.83q0-5,8.78-5h6.42q8.77,0,8.78,4.93V28.72Z"/><path class="cls-1" d="M75.84,21.18c0-1,.45-1.44,1.36-1.44H91.64V17q0-2.43-3.8-2.43H79q-5.11,0-5.11,2.59v7.65q0,2.49,5.11,2.49H82.6c.93,0,1.39.45,1.39,1.34A1.22,1.22,0,0,1,82.6,30H79.82q-9.24,0-9.25-5.63v-7q0-5.58,9.15-5.58h7.47q7.65,0,7.65,4.82v4.38c0,1-.48,1.54-1.44,1.54H77.2c-.91,0-1.36-.47-1.36-1.41Z"/><path class="cls-2" d="M126.92,11.82q0-2.75-5.52-2.75H103.5c-1,0-1.49-.47-1.49-1.41a1.3,1.3,0,0,1,1.49-1.44H121q9.47,0,9.46,5.29V15.7q0,5.57-9.67,5.56H106.09c-.33,0-.49.21-.49.63V28.7c0,1-.61,1.49-1.81,1.49S102,29.69,102,28.7V21.55q0-3.15,4.9-3.15h14.28q5.73,0,5.73-2.88v-3.7Z"/><path class="cls-2" d="M142.38,14.58c-1.8,0-2.7.49-2.7,1.49V28.72q0,1.5-1.68,1.5t-1.68-1.5V16.07q0-4.21,6.4-4.22h3.53c.84,0,1.26.46,1.26,1.36s-.36,1.37-1.07,1.37Z"/><path class="cls-2" d="M174.83,17.2q0-2.62-4.66-2.62h-7.58c-3.37,0-5.05,1-5.05,2.93v.71q0,1.62-1.68,1.62a1.43,1.43,0,0,1-1.62-1.62v-.71q0-5.66,8.85-5.66h6.58q8.54,0,8.54,5.63v.74c0,1.08-.57,1.62-1.7,1.62s-1.68-.54-1.68-1.62v-1Zm3.38,7.31q0,5.52-8.54,5.52H163q-8.76,0-8.75-5.52v-.82A1.46,1.46,0,0,1,155.86,22a1.48,1.48,0,0,1,1.68,1.67v.82q0,2.8,5.08,2.8h7.57q4.63,0,4.64-2.8v-.82a1.69,1.69,0,0,1,3.38,0v.82Z"/></svg>